<svg width="13" height="16" viewBox="0 0 13 16" fill="none" xmlns="http://www.w3.org/2000/svg">
<path fill-rule="evenodd" clip-rule="evenodd" d="M1.85714 7V5C1.85714 3.67392 2.3463 2.40215 3.217 1.46447C4.08771 0.526784 5.26864 0 6.5 0C7.73136 0 8.91229 0.526784 9.783 1.46447C10.6537 2.40215 11.1429 3.67392 11.1429 5V7C11.6354 7 12.1078 7.21071 12.4561 7.58579C12.8043 7.96086 13 8.46957 13 9V14C13 14.5304 12.8043 15.0391 12.4561 15.4142C12.1078 15.7893 11.6354 16 11.1429 16H1.85714C1.3646 16 0.892226 15.7893 0.543944 15.4142C0.195663 15.0391 0 14.5304 0 14V9C0 8.46957 0.195663 7.96086 0.543944 7.58579C0.892226 7.21071 1.3646 7 1.85714 7ZM9.28571 5V7H3.71429V5C3.71429 4.20435 4.00778 3.44129 4.5302 2.87868C5.05263 2.31607 5.76118 2 6.5 2C7.23882 2 7.94737 2.31607 8.4698 2.87868C8.99222 3.44129 9.28571 4.20435 9.28571 5Z" fill="#0F7B4C"/>
</svg>
