<svg width="18" height="17" viewBox="0 0 18 17" fill="none" xmlns="http://www.w3.org/2000/svg">
<path fill-rule="evenodd" clip-rule="evenodd" d="M9 6.8C10.023 6.8 11.0041 6.44179 11.7274 5.80416C12.4508 5.16654 12.8571 4.30174 12.8571 3.4C12.8571 2.49826 12.4508 1.63346 11.7274 0.995837C11.0041 0.358213 10.023 0 9 0C7.97702 0 6.99594 0.358213 6.27259 0.995837C5.54923 1.63346 5.14286 2.49826 5.14286 3.4C5.14286 4.30174 5.54923 5.16654 6.27259 5.80416C6.99594 6.44179 7.97702 6.8 9 6.8ZM0 17C-1.76116e-08 15.9582 0.232792 14.9266 0.685084 13.964C1.13738 13.0015 1.80031 12.127 2.63604 11.3903C3.47177 10.6536 4.46392 10.0692 5.55585 9.67056C6.64778 9.27187 7.8181 9.06667 9 9.06667C10.1819 9.06667 11.3522 9.27187 12.4442 9.67056C13.5361 10.0692 14.5282 10.6536 15.364 11.3903C16.1997 12.127 16.8626 13.0015 17.3149 13.964C17.7672 14.9266 18 15.9582 18 17H0Z" fill="#0F7B4C"/>
</svg>
