<svg width="16" height="12" viewBox="0 0 16 12" fill="none" xmlns="http://www.w3.org/2000/svg">
<path fill-rule="evenodd" clip-rule="evenodd" d="M7.99998 5.88199L0.00298405 1.884C0.0325881 1.37444 0.255892 0.895486 0.627162 0.545226C0.998431 0.194965 1.48957 -9.35845e-05 1.99998 3.36833e-08H14C14.5104 -9.35845e-05 15.0015 0.194965 15.3728 0.545226C15.7441 0.895486 15.9674 1.37444 15.997 1.884L7.99998 5.88199ZM8 8.11799L16 4.118V9.99999C16 10.5304 15.7893 11.0391 15.4142 11.4142C15.0391 11.7893 14.5304 12 14 12H2C1.46957 12 0.960859 11.7893 0.585786 11.4142C0.210714 11.0391 0 10.5304 0 9.99999V4.118L8 8.11799Z" fill="#0F7B4C"/>
</svg>
